{"title":"Flypaper.2011.LiMiTED.PROPER.DVDRip.XviD- EXViD","uid":7005607,"size":734931989,"categoryP":"video","categoryS":"movies","magnet":"?xt=urn:btih:be06f49fd4df673b75923182349f698036480ae4&amp;dn=Flypaper.2011.LiMiTED.PROPER.DVDRip.XviD-+EXViD&amp;tr=udp%3A%2F%2Ftracker.openbittorrent.com%3A80&amp;tr=udp%3A%2F%2Fopen.demonii.com%3A1337&amp;tr=udp%3A%2F%2Ftracker.coppersurfer.tk%3A6969&amp;tr=udp%3A%2F%2Fexodus.desync.com%3A6969","seeders":1,"leechers":0,"uploader":"LegendET","files":5,"time":1328254583,"description":"\n\n\n[center]\n\n[img]http://img714.imageshack.us/img714/55/ktq927g5.jpg[/img]\nFlypaper.2011.LiMiTED.PROPER.DVDRip.XviD-EXViD\n\nEXViD aims to iNTERNAL those releases which have been lost in the archives\nEXViD aims to PRE non-internal releases which have poor sources and are likely skipped by others\n &lt;a href=&quot;\nhttp://www.imdb.com/title/tt1541160/&quot; rel=&quot;nofollow&quot; target=&quot;_NEW&quot;&gt;\nhttp://www.imdb.com/title/tt1541160/&lt;/a&gt;\nSubtitles: NL\nDate: 2012.02\nDirector: Rob Minkoff\n\nGenres: Comedy | Crime\n\n[Plot]\nA man caught in the middle of two simultaneous robberies at the same bank desperately tries to\nprotect the teller with whom he's secretly in love\n\nCast:\nPatrick Dempsey ... Tripp Kennedy\nAshley Judd ... Kaitlin\nTim Blake Nelson ... Billy Ray 'Peanut Butter' McCloud\nMekhi Phifer ... Darrien\nMatt Ryan ... Gates\nJeffrey Tambor ... Gordon Blythe\nJohn Ventimiglia ... Weinstein\nPruitt Taylor Vince ... Wyatt 'Jelly' Jenkins\nCurtis Armstrong ... Mitchell Wolf\nRob Huebel ... Rex Newbauer\nAdrian Martinez ... Mr. Clean\nNatalia Safran ... Swiss Miss\nOctavia Spencer ... Madge Wiggins\nEddie Matthews ... Jack Hayes\nRob Boltin ... Credit Manager\n\nStats:\nFormat: AVI\nFormat/Info: Audio Video Interleave\nFile size: 699 MiB\nDuration: 1h 23mn\nOverall bit rate: 1 169 Kbps\nWriting application: VirtualDubMod 1.5.10.2 (build 2540/release)\nWriting library: VirtualDubMod build 2540/release\n\nVideo\nID: 0\nFormat: MPEG-4 Visual\nFormat profile: Advanced Simple@L5\nFormat settings, BVOP: Yes\nFormat settings, QPel: No\nFormat settings, GMC: No warppoints\nFormat settings, Matrix: Default (H.263)\nMuxing mode: Packed bitstream\nCodec ID: XVID\nCodec ID/Hint: XviD\nDuration: 1h 23mn\nBit rate: 711 Kbps\nWidth: 640 pixels\nHeight: 272 pixels\nDisplay aspect ratio: 2.35:1\nFrame rate: 25.000 fps\nColor space: YUV\nChroma subsampling: 4:2:0\nBit depth: 8 bits\nScan type: Progressive\nBits/(Pixel*Frame): 0.163\nStream size: 425 MiB (61%)\nWriting library: XviD 62\n\nAudio\nID: 1\nFormat: AC-3\nFormat/Info: Audio Coding 3\nMode extension: CM (complete main)\nCodec ID: 2000\nDuration: 1h 23mn\nBit rate mode: Constant\nBit rate: 448 Kbps\nChannel(s): 6 channels\nChannel positions: Front: L C R, Side: L R, LFE\nSampling rate: 48.0 KHz\nBit depth: 16 bits\nStream size: 268 MiB (38%)\nAlignment: Split accross interleaves\nInterleave, duration: 40 ms (1.00 video frame)\nInterleave, preload duration: 500 ms\n[/center]","torrent":{"xt":"urn:btih:be06f49fd4df673b75923182349f698036480ae4","amp;dn":"Flypaper.2011.LiMiTED.PROPER.DVDRip.XviD-+EXViD","amp;tr":["udp%3A%2F%2Ftracker.openbittorrent.com%3A80","udp%3A%2F%2Fopen.demonii.com%3A1337","udp%3A%2F%2Ftracker.coppersurfer.tk%3A6969","udp%3A%2F%2Fexodus.desync.com%3A6969"],"infoHash":"be06f49fd4df673b75923182349f698036480ae4","infoHashBuffer":{"type":"Buffer","data":[190,6,244,159,212,223,103,59,117,146,49,130,52,159,105,128,54,72,10,228]},"announce":[],"urlList":[]}}